<svg width="158" height="24" viewBox="0 0 158 24" fill="none" xmlns="http://www.w3.org/2000/svg">
<path d="M7.24229 11.0826C7.6908 9.40903 9.4111 7.68872 11.0847 7.24021L21.5187 4.44401C23.1923 3.99551 24.1854 4.98864 23.7369 6.66224L20.9407 17.0962C20.4922 18.7698 18.7719 20.4901 17.0983 20.9386L6.66432 23.7348C4.99071 24.1834 3.99758 23.1902 4.44609 21.5166L7.24229 11.0826Z" fill="#0BB65B"/>
<path d="M3.05936 6.89965C3.50787 5.22604 5.22818 3.50574 6.90178 3.05723L17.3358 0.261027C19.0094 -0.18748 20.0025 0.805654 19.554 2.47926L16.7578 12.9132C16.3093 14.5868 14.589 16.3072 12.9154 16.7557L2.48139 19.5519C0.807793 20.0004 -0.185343 19.0072 0.263165 17.3336L3.05936 6.89965Z" fill="#029246"/>
<path d="M33.2642 19V4.45455H43.0653V6.99006H36.3395V10.456H42.5611V12.9915H36.3395V16.4645H43.0938V19H33.2642ZM52.2504 11.8267V14.2273H45.6168V11.8267H52.2504ZM59.7575 19.2131C58.64 19.2131 57.6789 18.9763 56.8739 18.5028C56.0737 18.0246 55.4582 17.3617 55.0273 16.5142C54.6012 15.6667 54.3881 14.6913 54.3881 13.5881C54.3881 12.4706 54.6036 11.4905 55.0344 10.6477C55.4701 9.80019 56.0879 9.13968 56.8881 8.66619C57.6883 8.18797 58.64 7.94886 59.7433 7.94886C60.695 7.94886 61.5283 8.12169 62.2433 8.46733C62.9582 8.81297 63.524 9.2983 63.9407 9.9233C64.3574 10.5483 64.587 11.2822 64.6296 12.125H61.7745C61.694 11.5805 61.4809 11.1425 61.1353 10.8111C60.7944 10.4749 60.3469 10.3068 59.793 10.3068C59.3242 10.3068 58.9147 10.4347 58.5643 10.6903C58.2186 10.9413 57.9487 11.3082 57.7546 11.7912C57.5605 12.2741 57.4634 12.8589 57.4634 13.5455C57.4634 14.2415 57.5581 14.8333 57.7475 15.321C57.9416 15.8087 58.2139 16.1804 58.5643 16.4361C58.9147 16.6918 59.3242 16.8196 59.793 16.8196C60.1386 16.8196 60.4487 16.7486 60.7234 16.6065C61.0027 16.4645 61.2324 16.2585 61.4123 15.9886C61.5969 15.714 61.7177 15.3849 61.7745 15.0014H64.6296C64.5823 15.8348 64.355 16.5687 63.9478 17.2031C63.5453 17.8329 62.989 18.3253 62.2788 18.6804C61.5685 19.0355 60.7281 19.2131 59.7575 19.2131ZM71.4957 19.2131C70.3925 19.2131 69.4384 18.9787 68.6335 18.5099C67.8333 18.0365 67.2154 17.3783 66.7798 16.5355C66.3442 15.688 66.1264 14.7055 66.1264 13.5881C66.1264 12.4612 66.3442 11.4763 66.7798 10.6335C67.2154 9.78598 67.8333 9.12784 68.6335 8.65909C69.4384 8.18561 70.3925 7.94886 71.4957 7.94886C72.599 7.94886 73.5507 8.18561 74.3509 8.65909C75.1558 9.12784 75.776 9.78598 76.2116 10.6335C76.6473 11.4763 76.8651 12.4612 76.8651 13.5881C76.8651 14.7055 76.6473 15.688 76.2116 16.5355C75.776 17.3783 75.1558 18.0365 74.3509 18.5099C73.5507 18.9787 72.599 19.2131 71.4957 19.2131ZM71.5099 16.8693C72.0118 16.8693 72.4309 16.7273 72.767 16.4432C73.1032 16.1544 73.3565 15.7614 73.527 15.2642C73.7022 14.767 73.7898 14.2012 73.7898 13.5668C73.7898 12.9323 73.7022 12.3665 73.527 11.8693C73.3565 11.3722 73.1032 10.9792 72.767 10.6903C72.4309 10.4015 72.0118 10.2571 71.5099 10.2571C71.0033 10.2571 70.5772 10.4015 70.2315 10.6903C69.8906 10.9792 69.6326 11.3722 69.4574 11.8693C69.2869 12.3665 69.2017 12.9323 69.2017 13.5668C69.2017 14.2012 69.2869 14.767 69.4574 15.2642C69.6326 15.7614 69.8906 16.1544 70.2315 16.4432C70.5772 16.7273 71.0033 16.8693 71.5099 16.8693ZM78.8324 19V8.09091H81.7159V10.0156H81.8438C82.071 9.37642 82.4498 8.87216 82.9801 8.50284C83.5104 8.13352 84.1449 7.94886 84.8835 7.94886C85.6316 7.94886 86.2685 8.13589 86.794 8.50994C87.3196 8.87926 87.67 9.38116 87.8452 10.0156H87.9588C88.1813 9.39062 88.5838 8.8911 89.1662 8.51705C89.7533 8.13826 90.447 7.94886 91.2472 7.94886C92.2652 7.94886 93.0914 8.2732 93.7259 8.92188C94.3651 9.56581 94.6847 10.4796 94.6847 11.6634V19H91.6662V12.2599C91.6662 11.6539 91.5052 11.1993 91.1832 10.8963C90.8613 10.5933 90.4588 10.4418 89.9759 10.4418C89.4266 10.4418 88.9981 10.617 88.6903 10.9673C88.3826 11.313 88.2287 11.7699 88.2287 12.3381V19H85.2955V12.196C85.2955 11.661 85.1416 11.2348 84.8338 10.9176C84.5308 10.6004 84.1307 10.4418 83.6335 10.4418C83.2973 10.4418 82.9943 10.527 82.7244 10.6974C82.4593 10.8632 82.2486 11.0975 82.0923 11.4006C81.9361 11.6989 81.858 12.0492 81.858 12.4517V19H78.8324ZM97.0746 19V8.09091H99.9581V10.0156H100.086C100.313 9.37642 100.692 8.87216 101.222 8.50284C101.753 8.13352 102.387 7.94886 103.126 7.94886C103.874 7.94886 104.511 8.13589 105.036 8.50994C105.562 8.87926 105.912 9.38116 106.087 10.0156H106.201C106.424 9.39062 106.826 8.8911 107.408 8.51705C107.996 8.13826 108.689 7.94886 109.489 7.94886C110.507 7.94886 111.334 8.2732 111.968 8.92188C112.607 9.56581 112.927 10.4796 112.927 11.6634V19H109.908V12.2599C109.908 11.6539 109.747 11.1993 109.425 10.8963C109.103 10.5933 108.701 10.4418 108.218 10.4418C107.669 10.4418 107.24 10.617 106.933 10.9673C106.625 11.313 106.471 11.7699 106.471 12.3381V19H103.538V12.196C103.538 11.661 103.384 11.2348 103.076 10.9176C102.773 10.6004 102.373 10.4418 101.876 10.4418C101.54 10.4418 101.237 10.527 100.967 10.6974C100.701 10.8632 100.491 11.0975 100.335 11.4006C100.178 11.6989 100.1 12.0492 100.1 12.4517V19H97.0746ZM120.288 19.2131C119.166 19.2131 118.2 18.9858 117.391 18.5312C116.586 18.072 115.965 17.4233 115.53 16.5852C115.094 15.7424 114.876 14.7457 114.876 13.5952C114.876 12.473 115.094 11.4882 115.53 10.6406C115.965 9.79309 116.579 9.13258 117.369 8.65909C118.165 8.18561 119.098 7.94886 120.168 7.94886C120.887 7.94886 121.557 8.06487 122.178 8.29688C122.803 8.52415 123.347 8.86742 123.811 9.3267C124.28 9.78598 124.644 10.3636 124.905 11.0597C125.165 11.7509 125.295 12.5606 125.295 13.4886V14.3196H116.084V12.4446H122.447C122.447 12.009 122.353 11.6231 122.163 11.2869C121.974 10.9508 121.711 10.688 121.375 10.4986C121.044 10.3045 120.658 10.2074 120.217 10.2074C119.758 10.2074 119.351 10.3139 118.996 10.527C118.645 10.7353 118.371 11.017 118.172 11.3722C117.973 11.7225 117.871 12.1132 117.866 12.544V14.3267C117.866 14.8665 117.966 15.3329 118.165 15.7259C118.368 16.1188 118.655 16.4219 119.024 16.6349C119.393 16.848 119.831 16.9545 120.338 16.9545C120.674 16.9545 120.982 16.9072 121.261 16.8125C121.541 16.7178 121.78 16.5758 121.979 16.3864C122.178 16.197 122.329 15.965 122.433 15.6903L125.232 15.875C125.089 16.5473 124.798 17.1345 124.358 17.6364C123.922 18.1335 123.359 18.5218 122.668 18.8011C121.981 19.0758 121.188 19.2131 120.288 19.2131ZM127.27 19V8.09091H130.203V9.99432H130.317C130.516 9.31723 130.849 8.80587 131.318 8.46023C131.787 8.10985 132.327 7.93466 132.938 7.93466C133.089 7.93466 133.252 7.94413 133.428 7.96307C133.603 7.98201 133.757 8.00805 133.889 8.04119V10.7259C133.747 10.6832 133.551 10.6454 133.3 10.6122C133.049 10.5791 132.819 10.5625 132.611 10.5625C132.166 10.5625 131.768 10.6596 131.418 10.8537C131.072 11.0431 130.797 11.3082 130.594 11.6491C130.395 11.9901 130.295 12.383 130.295 12.8281V19H127.27ZM139.875 19.2131C138.757 19.2131 137.796 18.9763 136.991 18.5028C136.191 18.0246 135.575 17.3617 135.145 16.5142C134.718 15.6667 134.505 14.6913 134.505 13.5881C134.505 12.4706 134.721 11.4905 135.152 10.6477C135.587 9.80019 136.205 9.13968 137.005 8.66619C137.806 8.18797 138.757 7.94886 139.86 7.94886C140.812 7.94886 141.645 8.12169 142.36 8.46733C143.075 8.81297 143.641 9.2983 144.058 9.9233C144.475 10.5483 144.704 11.2822 144.747 12.125H141.892C141.811 11.5805 141.598 11.1425 141.252 10.8111C140.912 10.4749 140.464 10.3068 139.91 10.3068C139.441 10.3068 139.032 10.4347 138.681 10.6903C138.336 10.9413 138.066 11.3082 137.872 11.7912C137.678 12.2741 137.581 12.8589 137.581 13.5455C137.581 14.2415 137.675 14.8333 137.865 15.321C138.059 15.8087 138.331 16.1804 138.681 16.4361C139.032 16.6918 139.441 16.8196 139.91 16.8196C140.256 16.8196 140.566 16.7486 140.841 16.6065C141.12 16.4645 141.35 16.2585 141.529 15.9886C141.714 15.714 141.835 15.3849 141.892 15.0014H144.747C144.699 15.8348 144.472 16.5687 144.065 17.2031C143.663 17.8329 143.106 18.3253 142.396 18.6804C141.686 19.0355 140.845 19.2131 139.875 19.2131ZM151.656 19.2131C150.533 19.2131 149.567 18.9858 148.758 18.5312C147.953 18.072 147.333 17.4233 146.897 16.5852C146.461 15.7424 146.244 14.7457 146.244 13.5952C146.244 12.473 146.461 11.4882 146.897 10.6406C147.333 9.79309 147.946 9.13258 148.737 8.65909C149.532 8.18561 150.465 7.94886 151.535 7.94886C152.254 7.94886 152.924 8.06487 153.545 8.29688C154.17 8.52415 154.714 8.86742 155.178 9.3267C155.647 9.78598 156.012 10.3636 156.272 11.0597C156.532 11.7509 156.663 12.5606 156.663 13.4886V14.3196H147.451V12.4446H153.815C153.815 12.009 153.72 11.6231 153.531 11.2869C153.341 10.9508 153.078 10.688 152.742 10.4986C152.411 10.3045 152.025 10.2074 151.585 10.2074C151.125 10.2074 150.718 10.3139 150.363 10.527C150.013 10.7353 149.738 11.017 149.539 11.3722C149.34 11.7225 149.238 12.1132 149.234 12.544V14.3267C149.234 14.8665 149.333 15.3329 149.532 15.7259C149.736 16.1188 150.022 16.4219 150.391 16.6349C150.761 16.848 151.199 16.9545 151.705 16.9545C152.041 16.9545 152.349 16.9072 152.629 16.8125C152.908 16.7178 153.147 16.5758 153.346 16.3864C153.545 16.197 153.696 15.965 153.8 15.6903L156.599 15.875C156.457 16.5473 156.165 17.1345 155.725 17.6364C155.29 18.1335 154.726 18.5218 154.035 18.8011C153.348 19.0758 152.555 19.2131 151.656 19.2131Z" fill="#029246"/>
</svg>
