<svg width="20" height="20" viewBox="0 0 20 20" fill="none" xmlns="http://www.w3.org/2000/svg">
<path d="M18.3333 4.76997V1.66663C18.3333 1.20663 17.9608 0.833299 17.5 0.833299C17.0392 0.833299 16.6667 1.20663 16.6667 1.66663V3.6383L12.3308 0.712466C10.915 -0.242534 9.085 -0.242534 7.66917 0.712466L1.83583 4.64913C0.686667 5.42497 0 6.7158 0 8.1033V15.8333C0 18.1308 1.86917 20 4.16667 20H6.66667C7.1275 20 7.5 19.6266 7.5 19.1666V12.5C7.5 12.0408 7.87333 11.6666 8.33333 11.6666H11.6667C12.1267 11.6666 12.5 12.0408 12.5 12.5V19.1666C12.5 19.6266 12.8725 20 13.3333 20H15.8333C18.1308 20 20 18.1308 20 15.8333V8.1033C20 6.7858 19.38 5.55497 18.3333 4.76997ZM18.3333 15.8333C18.3333 17.2116 17.2117 18.3333 15.8333 18.3333H14.1667V12.5C14.1667 11.1216 13.045 9.99997 11.6667 9.99997H8.33333C6.955 9.99997 5.83333 11.1216 5.83333 12.5V18.3333H4.16667C2.78833 18.3333 1.66667 17.2116 1.66667 15.8333V8.1033C1.66667 7.2708 2.07833 6.4958 2.76833 6.0308L8.60167 2.09413C9.45167 1.5208 10.5483 1.5208 11.3975 2.09413L17.2308 6.0308C17.9208 6.4958 18.3325 7.2708 18.3325 8.1033L18.3333 15.8333Z" fill="#656565"/>
</svg>
