<svg width="21" height="20" viewBox="0 0 21 20" fill="none" xmlns="http://www.w3.org/2000/svg">
<path d="M16.3333 0.833374H4.66667C3.562 0.834697 2.50296 1.27411 1.72185 2.05522C0.940735 2.83634 0.501323 3.89538 0.5 5.00004L0.5 15C0.501323 16.1047 0.940735 17.1637 1.72185 17.9449C2.50296 18.726 3.562 19.1654 4.66667 19.1667H16.3333C17.438 19.1654 18.497 18.726 19.2782 17.9449C20.0593 17.1637 20.4987 16.1047 20.5 15V5.00004C20.4987 3.89538 20.0593 2.83634 19.2782 2.05522C18.497 1.27411 17.438 0.834697 16.3333 0.833374ZM4.66667 2.50004H16.3333C16.8323 2.50102 17.3196 2.6513 17.7325 2.93154C18.1453 3.21179 18.4649 3.60916 18.65 4.07254L12.2683 10.455C11.7987 10.9228 11.1628 11.1854 10.5 11.1854C9.83715 11.1854 9.20131 10.9228 8.73167 10.455L2.35 4.07254C2.53512 3.60916 2.85468 3.21179 3.26754 2.93154C3.6804 2.6513 4.16768 2.50102 4.66667 2.50004ZM16.3333 17.5H4.66667C4.00363 17.5 3.36774 17.2367 2.8989 16.7678C2.43006 16.299 2.16667 15.6631 2.16667 15V6.25004L7.55333 11.6334C8.33552 12.4136 9.39521 12.8517 10.5 12.8517C11.6048 12.8517 12.6645 12.4136 13.4467 11.6334L18.8333 6.25004V15C18.8333 15.6631 18.5699 16.299 18.1011 16.7678C17.6323 17.2367 16.9964 17.5 16.3333 17.5Z" fill="#656565"/>
</svg>
