<svg width="40" height="40" viewBox="0 0 40 40" fill="none" xmlns="http://www.w3.org/2000/svg">
<circle cx="20" cy="20" r="20" fill="#029246" fill-opacity="0.9"/>
<g clip-path="url(#clip0_23_27)">
<path d="M29.2188 19.2188H20.7812V10.7812C20.7812 10.3498 20.4315 10 20 10C19.5685 10 19.2188 10.3498 19.2188 10.7812V19.2188H10.7812C10.3498 19.2188 10 19.5685 10 20C10 20.4315 10.3498 20.7812 10.7812 20.7812H19.2188V29.2188C19.2188 29.6502 19.5685 30 20 30C20.4315 30 20.7812 29.6502 20.7812 29.2188V20.7812H29.2188C29.6502 20.7812 30 20.4315 30 20C30 19.5685 29.6502 19.2188 29.2188 19.2188Z" fill="white"/>
</g>
<defs>
<clipPath id="clip0_23_27">
<rect width="20" height="20" fill="white" transform="translate(10 10)"/>
</clipPath>
</defs>
</svg>
