<svg width="18" height="20" viewBox="0 0 18 20" fill="none" xmlns="http://www.w3.org/2000/svg">
<path d="M16.745 11.5833L16.375 11.37C16.5416 10.4637 16.5416 9.53463 16.375 8.62833L16.745 8.415C17.0295 8.25085 17.2789 8.03226 17.479 7.77172C17.6791 7.51118 17.8258 7.21378 17.911 6.89651C17.9961 6.57925 18.0179 6.24832 17.9751 5.92263C17.9323 5.59694 17.8258 5.28286 17.6617 4.99833C17.4975 4.7138 17.2789 4.46439 17.0184 4.26434C16.7578 4.06428 16.4605 3.91751 16.1432 3.83239C15.8259 3.74726 15.495 3.72547 15.1693 3.76824C14.8436 3.81101 14.5295 3.91751 14.245 4.08167L13.8742 4.29583C13.1738 3.69743 12.3689 3.23354 11.5 2.9275V2.5C11.5 1.83696 11.2366 1.20107 10.7678 0.732233C10.2989 0.263392 9.66305 0 9.00001 0C8.33696 0 7.70108 0.263392 7.23224 0.732233C6.7634 1.20107 6.50001 1.83696 6.50001 2.5V2.9275C5.63116 3.23464 4.82655 3.69967 4.12667 4.29917L3.75417 4.08333C3.17954 3.75181 2.49674 3.66214 1.85599 3.83405C1.21524 4.00596 0.669026 4.42536 0.337505 5C0.00598467 5.57464 -0.0836846 6.25743 0.0882238 6.89818C0.260132 7.53893 0.679536 8.08515 1.25417 8.41667L1.62417 8.63C1.4576 9.5363 1.4576 10.4654 1.62417 11.3717L1.25417 11.585C0.679536 11.9165 0.260132 12.4627 0.0882238 13.1035C-0.0836846 13.7442 0.00598467 14.427 0.337505 15.0017C0.669026 15.5763 1.21524 15.9957 1.85599 16.1676C2.49674 16.3395 3.17954 16.2499 3.75417 15.9183L4.12501 15.7042C4.82564 16.3027 5.63082 16.7666 6.50001 17.0725V17.5C6.50001 18.163 6.7634 18.7989 7.23224 19.2678C7.70108 19.7366 8.33696 20 9.00001 20C9.66305 20 10.2989 19.7366 10.7678 19.2678C11.2366 18.7989 11.5 18.163 11.5 17.5V17.0725C12.3688 16.7654 13.1735 16.3003 13.8733 15.7008L14.2458 15.9158C14.8205 16.2474 15.5033 16.337 16.144 16.1651C16.7848 15.9932 17.331 15.5738 17.6625 14.9992C17.994 14.4245 18.0837 13.7417 17.9118 13.101C17.7399 12.4602 17.3205 11.914 16.7458 11.5825L16.745 11.5833ZM14.6217 8.43667C14.9039 9.45922 14.9039 10.5391 14.6217 11.5617C14.5724 11.7396 14.5836 11.9289 14.6536 12.0998C14.7236 12.2707 14.8484 12.4135 15.0083 12.5058L15.9117 13.0275C16.1032 13.138 16.2429 13.3201 16.3002 13.5336C16.3575 13.7472 16.3276 13.9747 16.2171 14.1663C16.1066 14.3578 15.9245 14.4975 15.711 14.5548C15.4974 14.6121 15.2698 14.5822 15.0783 14.4717L14.1733 13.9483C14.0133 13.8556 13.8269 13.8188 13.6435 13.8437C13.4602 13.8686 13.2904 13.9538 13.1608 14.0858C12.4191 14.843 11.4847 15.3833 10.4583 15.6483C10.2792 15.6944 10.1205 15.7987 10.0072 15.9449C9.89386 16.0911 9.83241 16.2709 9.83251 16.4558V17.5C9.83251 17.721 9.74471 17.933 9.58843 18.0893C9.43215 18.2455 9.22019 18.3333 8.99917 18.3333C8.77816 18.3333 8.5662 18.2455 8.40992 18.0893C8.25364 17.933 8.16584 17.721 8.16584 17.5V16.4567C8.16593 16.2717 8.10448 16.092 7.99118 15.9458C7.87787 15.7996 7.71914 15.6952 7.54001 15.6492C6.51363 15.3831 5.57945 14.8416 4.83834 14.0833C4.70878 13.9513 4.53895 13.8661 4.35564 13.8412C4.17232 13.8163 3.98593 13.8531 3.82584 13.9458L2.92251 14.4683C2.8277 14.5239 2.72283 14.5602 2.61394 14.5751C2.50506 14.59 2.3943 14.5832 2.28805 14.5551C2.1818 14.527 2.08216 14.4782 1.99486 14.4114C1.90755 14.3446 1.83432 14.2613 1.77937 14.1661C1.72442 14.0709 1.68884 13.9658 1.67467 13.8568C1.6605 13.7479 1.66804 13.6372 1.69683 13.5311C1.72563 13.425 1.77511 13.3257 1.84245 13.2389C1.90978 13.152 1.99363 13.0793 2.08917 13.025L2.99251 12.5033C3.15246 12.411 3.27723 12.2682 3.34722 12.0973C3.41721 11.9264 3.42845 11.7371 3.37917 11.5592C3.09697 10.5366 3.09697 9.45672 3.37917 8.43417C3.42756 8.25657 3.41579 8.06795 3.34568 7.89774C3.27558 7.72754 3.1511 7.58534 2.99167 7.49333L2.08834 6.97167C1.89683 6.86116 1.75706 6.6791 1.69979 6.46555C1.64251 6.25199 1.67242 6.02442 1.78292 5.83292C1.89343 5.64141 2.07549 5.50164 2.28904 5.44437C2.5026 5.38709 2.73016 5.41699 2.92167 5.5275L3.82667 6.05083C3.98632 6.14376 4.17232 6.18101 4.35544 6.15672C4.53857 6.13244 4.70843 6.048 4.83834 5.91667C5.58008 5.15945 6.51453 4.61918 7.54084 4.35417C7.72053 4.30797 7.87967 4.20313 7.99303 4.05625C8.1064 3.90938 8.16751 3.72887 8.16667 3.54333V2.5C8.16667 2.27899 8.25447 2.06702 8.41075 1.91074C8.56703 1.75446 8.77899 1.66667 9.00001 1.66667C9.22102 1.66667 9.43298 1.75446 9.58926 1.91074C9.74554 2.06702 9.83334 2.27899 9.83334 2.5V3.54333C9.83325 3.7283 9.89469 3.90804 10.008 4.05423C10.1213 4.20043 10.28 4.30478 10.4592 4.35083C11.4858 4.61679 12.4203 5.15824 13.1617 5.91667C13.2912 6.04872 13.4611 6.13391 13.6444 6.15881C13.8277 6.1837 14.0141 6.14689 14.1742 6.05417L15.0775 5.53167C15.1723 5.47609 15.2772 5.43981 15.3861 5.42492C15.495 5.41003 15.6057 5.41683 15.712 5.44492C15.8182 5.47301 15.9179 5.52184 16.0052 5.58859C16.0925 5.65535 16.1657 5.73872 16.2206 5.83389C16.2756 5.92907 16.3112 6.03417 16.3253 6.14316C16.3395 6.25214 16.332 6.36285 16.3032 6.46891C16.2744 6.57497 16.2249 6.67429 16.1576 6.76114C16.0902 6.848 16.0064 6.92068 15.9108 6.975L15.0075 7.49667C14.8484 7.58892 14.7242 7.73123 14.6545 7.90141C14.5847 8.07159 14.5731 8.26008 14.6217 8.4375V8.43667Z" fill="#656565"/>
</svg>
